<?xml version="1.0" standalone="no"?>
<!DOCTYPE svg PUBLIC "-//W3C//DTD SVG 20010904//EN"
 "http://www.w3.org/TR/2001/REC-SVG-20010904/DTD/svg10.dtd">
<svg version="1.0" xmlns="http://www.w3.org/2000/svg"
 width="300.000000pt" height="300.000000pt" viewBox="0 0 300.000000 300.000000"
 preserveAspectRatio="xMidYMid meet">
<metadata>
Created by potrace 1.11, written by Peter Selinger 2001-2013
</metadata>
<g transform="translate(0.000000,300.000000) scale(0.100000,-0.100000)"
fill="#000000" stroke="none">
<path d="M1283 2793 c9 -2 25 -2 35 0 9 3 1 5 -18 5 -19 0 -27 -2 -17 -5z"/>
<path d="M935 2775 c-5 -2 -44 -9 -85 -14 -128 -17 -270 -51 -322 -77 -31 -16
-57 -23 -71 -19 -15 4 -18 3 -9 -3 9 -6 -14 -22 -80 -55 -105 -53 -150 -78
-159 -90 -3 -4 -14 -5 -25 -1 -13 4 -15 3 -6 -3 9 -7 0 -19 -35 -44 -27 -19
-52 -33 -56 -31 -5 1 -6 -1 -3 -6 3 -5 -6 -24 -19 -42 -18 -24 -25 -47 -25
-77 0 -39 4 -46 41 -73 51 -36 143 -72 165 -63 14 5 16 1 11 -28 -21 -120 -19
-227 9 -393 6 -31 4 -37 -6 -31 -9 5 -11 4 -6 -4 4 -6 11 -9 16 -6 4 3 11 -11
15 -31 8 -48 98 -223 135 -265 21 -24 27 -41 23 -56 -3 -13 -1 -23 6 -23 6 0
8 8 4 18 -5 14 -3 14 14 -3 20 -20 20 -20 -11 -28 -17 -5 -40 -17 -52 -28 -13
-12 -24 -15 -30 -9 -17 17 0 -103 19 -130 9 -13 17 -20 17 -15 0 6 4 4 9 -4 5
-8 17 -16 26 -17 21 -3 33 -14 16 -14 -7 0 -10 -4 -6 -10 3 -5 12 -7 19 -4 8
3 25 -3 38 -14 12 -11 45 -39 72 -62 27 -23 59 -48 72 -57 13 -8 21 -20 17
-26 -3 -5 -1 -7 4 -4 14 9 65 -31 57 -44 -3 -5 -10 -6 -16 -3 -7 4 -8 2 -4 -5
6 -9 11 -9 21 -1 16 14 38 4 29 -12 -4 -7 -2 -8 4 -4 6 4 25 -7 43 -23 17 -17
36 -32 42 -34 6 -2 8 -11 3 -23 -4 -10 -7 -19 -6 -19 1 0 -5 -18 -14 -40 -20
-51 -62 -198 -71 -250 -4 -22 -10 -44 -13 -50 -3 -5 -7 -25 -9 -45 -2 -19 -8
-60 -14 -90 -5 -30 -13 -108 -16 -173 l-6 -117 179 2 179 3 1 30 c1 39 13 65
30 65 8 0 14 5 14 10 0 14 -11 12 -31 -6 -17 -16 -18 -14 -16 27 2 25 7 51 12
59 5 9 4 15 -3 18 -7 2 -12 13 -12 24 0 14 5 18 15 14 9 -3 15 0 15 9 0 21 23
18 43 -5 21 -25 22 -50 2 -50 -8 0 -15 -5 -15 -11 0 -6 7 -9 15 -5 12 4 15 -1
13 -24 -2 -25 -5 -27 -23 -19 -18 9 -18 9 2 -9 16 -15 21 -27 18 -52 -3 -19
-8 -36 -12 -39 -5 -3 -15 -15 -23 -25 -15 -19 -14 -19 13 -2 24 16 27 17 27 2
0 -14 40 -16 418 -16 l417 1 -26 22 c-14 12 -87 73 -163 135 -118 98 -136 116
-130 135 3 12 8 24 10 26 8 9 354 -290 354 -306 0 -8 12 -13 31 -13 30 0 31 2
25 33 -3 17 -8 55 -11 82 -3 28 -7 66 -10 85 -21 164 -29 310 -30 515 0 233 8
313 25 255 8 -24 8 -24 9 5 2 25 12 37 59 70 31 22 60 40 65 41 4 1 12 2 17 3
6 0 10 6 10 12 0 8 -5 8 -15 -1 -28 -23 -15 5 16 35 17 17 43 45 57 63 19 25
27 30 35 20 6 -9 7 -8 3 5 -4 12 6 34 29 64 19 25 35 51 35 58 0 6 9 20 20 30
11 10 17 22 14 26 -3 5 0 9 6 9 9 0 10 34 6 128 -8 166 -9 176 -18 183 -5 3
-13 34 -19 68 -5 34 -14 70 -19 79 -27 52 -51 116 -47 126 3 7 -4 18 -14 24
-10 7 -19 17 -19 24 0 6 -18 40 -41 76 -33 51 -38 67 -27 74 10 8 9 9 -4 4
-12 -3 -24 5 -38 24 -11 16 -75 84 -141 151 -71 73 -118 128 -114 136 2 8 1
11 -5 8 -5 -3 -37 17 -72 45 -105 85 -243 152 -370 180 -32 7 -58 16 -58 19 0
3 -15 7 -32 8 -78 6 -444 12 -453 8z m749 -355 c55 -12 134 -35 177 -51 83
-32 206 -112 231 -152 l17 -24 -82 -7 c-45 -3 -130 -6 -189 -6 -59 0 -118 -4
-132 -10 -28 -10 -35 -37 -12 -46 12 -4 13 -20 9 -74 l-6 -68 48 -51 c59 -63
115 -91 182 -91 64 0 143 40 187 93 26 33 31 47 31 90 -1 29 -5 67 -9 85 -12
47 13 42 45 -11 98 -157 183 -420 184 -572 0 -66 -3 -75 -45 -145 -107 -178
-214 -282 -400 -387 -160 -92 -276 -123 -456 -123 -166 0 -335 45 -526 140
-175 87 -281 175 -331 275 -32 61 -47 187 -47 377 0 351 94 590 279 707 105
67 200 81 511 76 192 -3 253 -7 334 -25z m416 -322 c40 -66 17 -139 -62 -189
-94 -61 -194 -45 -273 42 -38 43 -46 91 -22 139 12 24 16 25 152 30 77 3 150
7 163 8 16 1 28 -7 42 -30z m-1552 -830 c12 -23 20 -43 18 -45 -2 -2 -15 1
-29 6 -37 14 -64 -7 -46 -36 10 -18 10 -24 0 -37 -19 -23 -35 -20 -70 13 -42
39 -42 80 0 115 21 18 42 26 67 26 33 0 39 -5 60 -42z m25 -59 c9 0 17 -4 17
-10 0 -5 -7 -9 -15 -9 -8 0 -15 -7 -15 -16 0 -28 22 -104 32 -110 5 -4 25 8
43 26 32 31 62 34 51 4 -8 -21 17 -124 30 -124 7 0 27 12 44 26 17 15 32 25
34 23 1 -2 11 -34 20 -72 10 -37 23 -70 28 -73 5 -4 27 10 47 30 45 44 59 37
26 -13 -14 -19 -25 -41 -25 -48 0 -32 -46 -4 -205 123 -220 175 -204 158 -175
189 20 21 21 25 6 31 -9 3 -16 13 -16 21 0 12 7 14 28 9 15 -4 35 -7 45 -7z
m71 -61 c8 -13 6 -22 -8 -37 -23 -26 -46 -27 -46 -3 0 9 -3 27 -7 40 -5 21 -3
23 22 20 15 -2 33 -11 39 -20z m104 -87 c12 -11 22 -23 22 -28 0 -8 -36 -43
-45 -43 -4 0 -25 68 -25 83 0 13 24 7 48 -12z m139 -90 c12 -9 23 -19 23 -23
0 -7 -54 -48 -63 -48 -4 0 -27 80 -27 95 0 9 42 -6 67 -24z m240 -158 c55 -49
179 -157 276 -242 98 -85 175 -159 172 -165 -3 -6 -8 -19 -11 -28 -8 -23 -17
-23 -40 3 -10 12 -135 130 -276 261 -142 132 -258 244 -258 249 0 27 49 -1
137 -78z m593 18 c0 -6 -5 -13 -10 -16 -6 -4 -8 -11 -5 -16 4 -5 -3 -9 -14 -9
-26 0 -29 36 -3 43 28 8 32 7 32 -2z m-57 -44 c17 -22 18 -30 8 -40 -10 -10
-11 -8 -5 6 5 13 2 16 -11 11 -10 -4 -15 -14 -12 -25 7 -26 -6 -31 -29 -14
-29 22 -41 18 -16 -5 23 -21 27 -32 16 -43 -11 -10 -46 14 -41 28 3 7 -1 12
-10 11 -23 -2 -28 23 -6 32 10 4 19 13 21 20 3 18 -22 10 -30 -10 -4 -10 -12
-18 -18 -18 -13 0 -13 27 0 35 6 3 10 11 10 18 0 6 -7 1 -17 -12 -15 -23 -17
-23 -30 -5 -12 16 -15 17 -29 2 -15 -14 -14 -18 2 -44 15 -22 20 -24 22 -11 5
23 18 21 48 -7 19 -17 23 -26 14 -31 -8 -5 -18 -1 -27 11 -12 16 -15 17 -24 4
-8 -13 -11 -12 -24 5 -9 11 -23 29 -33 40 -9 11 -17 30 -17 41 -1 20 5 22 72
23 61 1 76 -2 97 -20 14 -12 23 -26 20 -31 -3 -4 -3 -8 -1 -8 3 0 13 12 22 28
10 15 12 21 4 15 -18 -18 -27 -16 -39 8 -10 19 -9 20 16 17 15 -2 36 -15 47
-31z m-253 7 c0 -14 -3 -14 -15 -4 -8 7 -15 14 -15 16 0 2 7 4 15 4 8 0 15 -7
15 -16z m85 -33 c7 -12 -12 -24 -25 -16 -11 7 -4 25 10 25 5 0 11 -4 15 -9z
m34 -88 c9 -17 11 -17 24 1 14 19 15 19 26 -2 10 -18 9 -25 -4 -38 -15 -15
-18 -14 -45 12 -16 16 -30 32 -30 37 0 14 19 7 29 -10z m169 -199 c30 -21 28
-45 -7 -78 -46 -44 -66 -12 -40 63 13 36 16 37 47 15z m-42 -129 c14 -57 -29
-75 -65 -29 -23 30 -27 54 -10 71 17 17 67 -11 75 -42z m-506 -12 c0 -25 -4
-34 -13 -30 -8 3 -14 -1 -14 -8 0 -8 5 -13 10 -12 5 1 12 -4 14 -10 6 -18 -12
-16 -27 2 -12 14 -15 14 -30 0 -16 -14 -18 -14 -23 4 -3 14 -1 18 9 14 8 -3
14 0 14 6 0 6 -7 11 -15 11 -10 0 -15 10 -15 30 0 28 2 29 45 28 45 -1 45 -1
45 -35z m431 -29 c11 -13 6 -21 -29 -57 -35 -35 -45 -40 -60 -31 -9 6 -18 23
-20 37 -3 21 4 30 35 46 47 25 57 25 74 5z"/>
<path d="M1335 2144 c-16 -1 -129 -8 -250 -14 -242 -13 -272 -22 -229 -65 15
-14 14 -18 -2 -43 -26 -40 -24 -111 5 -153 107 -156 349 -184 487 -57 63 58
86 112 83 197 -1 44 2 76 10 85 7 8 11 23 9 33 -3 18 -43 24 -113 17z m55 -73
c5 -11 10 -39 10 -63 0 -146 -107 -242 -270 -242 -88 -1 -144 21 -209 79 -54
49 -70 99 -46 148 32 68 33 68 272 82 120 7 221 13 225 14 4 0 12 -8 18 -18z"/>
<path d="M1172 1988 c-21 -21 -14 -57 14 -70 23 -11 29 -10 45 10 35 44 -20
99 -59 60z"/>
<path d="M2050 1694 c-8 -2 -118 -13 -245 -24 -286 -26 -438 -44 -630 -75 -82
-13 -171 -27 -198 -30 -127 -14 -137 -16 -137 -31 0 -13 12 -14 73 -9 39 4
108 13 152 21 44 8 125 21 180 29 55 8 129 20 165 25 36 6 213 23 394 40 180
17 332 33 337 36 29 17 -37 31 -91 18z"/>
<path d="M1962 2048 c-16 -16 -15 -53 3 -68 19 -16 45 -10 61 15 26 39 -31 86
-64 53z"/>
<path d="M1550 650 c0 -5 5 -10 10 -10 6 0 10 5 10 10 0 6 -4 10 -10 10 -5 0
-10 -4 -10 -10z"/>
<path d="M605 2740 c3 -5 14 -10 23 -10 15 0 15 2 2 10 -20 13 -33 13 -25 0z"/>
<path d="M250 2569 c0 -5 5 -7 10 -4 6 3 10 8 10 11 0 2 -4 4 -10 4 -5 0 -10
-5 -10 -11z"/>
<path d="M50 2230 c0 -5 5 -10 10 -10 6 0 10 5 10 10 0 6 -4 10 -10 10 -5 0
-10 -4 -10 -10z"/>
<path d="M2200 2220 c0 -5 5 -10 11 -10 5 0 7 5 4 10 -3 6 -8 10 -11 10 -2 0
-4 -4 -4 -10z"/>
<path d="M2305 2040 c3 -5 8 -10 11 -10 2 0 4 5 4 10 0 6 -5 10 -11 10 -5 0
-7 -4 -4 -10z"/>
<path d="M2361 1934 c0 -11 3 -14 6 -6 3 7 2 16 -1 19 -3 4 -6 -2 -5 -13z"/>
<path d="M2420 1680 c0 -5 5 -10 11 -10 5 0 7 5 4 10 -3 6 -8 10 -11 10 -2 0
-4 -4 -4 -10z"/>
<path d="M261 1654 c0 -11 3 -14 6 -6 3 7 2 16 -1 19 -3 4 -6 -2 -5 -13z"/>
<path d="M2462 1500 c0 -14 2 -19 5 -12 2 6 2 18 0 25 -3 6 -5 1 -5 -13z"/>
<path d="M310 1434 c0 -8 5 -12 10 -9 6 4 8 11 5 16 -9 14 -15 11 -15 -7z"/>
<path d="M407 1370 c-3 -11 -2 -20 3 -20 12 0 21 28 11 35 -5 2 -11 -4 -14
-15z"/>
<path d="M333 1272 c-1 -22 0 -24 9 -8 6 10 6 22 2 26 -5 5 -10 -3 -11 -18z"/>
<path d="M2353 1273 c-4 -10 -11 -22 -17 -26 -7 -6 -6 -7 3 -5 13 4 37 48 25
48 -2 0 -8 -8 -11 -17z"/>
<path d="M348 1163 c7 -3 16 -2 19 1 4 3 -2 6 -13 5 -11 0 -14 -3 -6 -6z"/>
<path d="M2255 1140 c-3 -5 -1 -10 4 -10 6 0 11 5 11 10 0 6 -2 10 -4 10 -3 0
-8 -4 -11 -10z"/>
<path d="M606 942 c-3 -6 -1 -14 5 -17 15 -10 25 3 12 16 -7 7 -13 7 -17 1z"/>
<path d="M645 941 c-3 -5 -2 -12 3 -15 5 -3 9 1 9 9 0 17 -3 19 -12 6z"/>
<path d="M2063 870 c0 -25 2 -35 4 -22 2 12 2 32 0 45 -2 12 -4 2 -4 -23z"/>
<path d="M812 760 c0 -19 2 -27 5 -17 2 9 2 25 0 35 -3 9 -5 1 -5 -18z"/>
<path d="M2052 735 c0 -16 2 -22 5 -12 2 9 2 23 0 30 -3 6 -5 -1 -5 -18z"/>
<path d="M762 570 c0 -19 2 -27 5 -17 2 9 2 25 0 35 -3 9 -5 1 -5 -18z"/>
<path d="M2061 464 c0 -11 3 -14 6 -6 3 7 2 16 -1 19 -3 4 -6 -2 -5 -13z"/>
<path d="M2061 424 c0 -11 3 -14 6 -6 3 7 2 16 -1 19 -3 4 -6 -2 -5 -13z"/>
<path d="M1100 230 c-8 -5 -12 -11 -9 -14 2 -3 11 -1 19 4 8 5 12 11 9 14 -2
3 -11 1 -19 -4z"/>
<path d="M1080 168 c0 -4 7 -8 15 -8 8 0 15 4 15 8 0 5 -7 9 -15 9 -8 0 -15
-4 -15 -9z"/>
<path d="M2550 95 c0 -8 8 -15 18 -14 10 0 12 3 4 6 -6 2 -10 9 -6 14 3 5 0 9
-5 9 -6 0 -11 -7 -11 -15z"/>
<path d="M2673 93 c9 -2 17 -9 17 -14 0 -6 -9 -8 -19 -4 -11 3 -22 1 -26 -5
-4 -6 14 -9 52 -9 44 1 53 4 35 10 -13 5 -20 13 -17 19 4 6 -7 10 -27 9 -18
-1 -25 -3 -15 -6z"/>
<path d="M2778 93 c7 -3 16 -2 19 1 4 3 -2 6 -13 5 -11 0 -14 -3 -6 -6z"/>
<path d="M1110 81 c0 -5 -7 -11 -17 -13 -15 -3 -15 -4 0 -17 15 -12 17 -11 17
3 0 9 5 16 10 16 6 0 10 5 10 10 0 6 -4 10 -10 10 -5 0 -10 -4 -10 -9z"/>
<path d="M2870 82 c0 -11 23 -22 46 -22 8 0 14 4 14 10 0 5 -7 7 -15 4 -8 -4
-22 -1 -30 6 -9 7 -15 8 -15 2z"/>
<path d="M2767 69 c7 -7 15 -10 18 -7 3 3 -2 9 -12 12 -14 6 -15 5 -6 -5z"/>
<path d="M2578 63 c6 -2 18 -2 25 0 6 3 1 5 -13 5 -14 0 -19 -2 -12 -5z"/>
<path d="M2958 63 c7 -3 16 -2 19 1 4 3 -2 6 -13 5 -11 0 -14 -3 -6 -6z"/>
<path d="M2550 29 c0 -5 5 -7 10 -4 6 3 10 8 10 11 0 2 -4 4 -10 4 -5 0 -10
-5 -10 -11z"/>
<path d="M2800 20 c-6 -11 -7 -20 -2 -20 6 0 12 9 15 20 3 11 3 20 1 20 -2 0
-8 -9 -14 -20z"/>
<path d="M2630 10 c-12 -7 -10 -9 8 -7 12 0 22 5 22 9 0 11 -12 10 -30 -2z"/>
<path d="M2698 3 c18 -2 45 -2 60 0 15 2 0 4 -33 4 -33 0 -45 -2 -27 -4z"/>
<path d="M2888 3 c6 -2 18 -2 25 0 6 3 1 5 -13 5 -14 0 -19 -2 -12 -5z"/>
<path d="M2953 3 c9 -2 25 -2 35 0 9 3 1 5 -18 5 -19 0 -27 -2 -17 -5z"/>
</g>
</svg>
